<?xml version="1.0" standalone="no"?>
<!DOCTYPE svg PUBLIC "-//W3C//DTD SVG 20010904//EN"
 "http://www.w3.org/TR/2001/REC-SVG-20010904/DTD/svg10.dtd">
<svg version="1.0" xmlns="http://www.w3.org/2000/svg"
 width="654.000000pt" height="654.000000pt" viewBox="0 0 654.000000 654.000000"
 preserveAspectRatio="xMidYMid meet">
<metadata>
Created by potrace 1.11, written by Peter Selinger 2001-2013
</metadata>
<g transform="translate(0.000000,654.000000) scale(0.100000,-0.100000)"
fill="#000000" stroke="none">
<path d="M2944 6275 c-349 -39 -758 -164 -1054 -323 -242 -130 -419 -255 -633
-446 -133 -119 -161 -198 -112 -317 5 -13 -7 -24 -48 -48 -96 -55 -145 -105
-163 -169 -9 -31 -40 -103 -70 -159 -50 -94 -54 -108 -54 -169 l0 -67 -59 -61
c-32 -34 -71 -86 -86 -115 -33 -66 -57 -175 -54 -251 2 -55 0 -59 -52 -126
-170 -214 -312 -430 -400 -608 -59 -119 -69 -146 -69 -192 0 -29 4 -64 9 -77
16 -41 71 -96 145 -147 91 -61 201 -178 246 -260 l35 -65 65 -10 c36 -5 76
-18 90 -27 42 -28 96 -47 154 -54 48 -6 56 -4 56 10 0 9 -7 19 -15 22 -16 6
-69 87 -79 120 -5 18 4 25 71 57 43 20 108 45 145 57 61 19 69 20 96 6 48 -25
52 -35 35 -96 -9 -32 -16 -101 -17 -167 -1 -111 -1 -112 -32 -145 -17 -18 -40
-48 -50 -65 -10 -18 -22 -33 -26 -33 -4 0 -19 38 -34 85 -15 50 -32 85 -39 85
-19 0 -54 -100 -62 -171 -5 -46 -9 -59 -23 -59 -9 0 -25 -9 -36 -21 -17 -19
-19 -38 -19 -168 0 -124 3 -151 19 -181 20 -38 264 -293 308 -323 26 -17 26
-19 12 -52 -20 -50 -18 -131 6 -180 33 -68 278 -278 480 -412 275 -182 568
-314 880 -397 119 -31 319 -70 405 -78 24 -2 35 -12 54 -47 103 -188 351 -239
523 -107 23 18 54 53 68 76 41 70 51 76 125 84 95 10 330 60 448 96 432 130
864 378 1170 670 118 112 150 195 112 287 -8 20 -14 37 -13 38 2 1 20 12 40
24 31 18 47 43 103 159 37 75 77 148 90 162 76 82 91 139 55 218 -17 38 -18
50 -9 88 7 25 9 71 6 103 -5 61 -39 151 -56 151 -6 0 -18 -26 -27 -57 -9 -32
-25 -75 -36 -96 -16 -32 -21 -36 -38 -27 -10 5 -34 29 -53 52 -73 90 -117 215
-117 335 l0 62 52 16 c97 28 291 15 305 -21 8 -21 -25 -78 -69 -121 -52 -50
-50 -67 5 -58 63 10 147 34 189 56 20 10 43 16 51 13 38 -14 101 18 181 95 45
42 133 120 196 173 180 149 198 177 188 287 -8 82 -136 319 -334 619 -63 95
-119 184 -124 197 -5 13 -12 65 -16 116 l-7 91 -58 79 c-32 43 -88 122 -125
176 -64 94 -66 98 -61 147 12 127 -36 267 -121 354 -26 26 -90 74 -142 106
-52 32 -96 60 -98 61 -2 2 8 19 22 39 43 64 45 139 5 218 -23 45 -185 191
-346 311 -426 319 -929 516 -1461 572 -167 18 -483 18 -648 0z m760 -135 c562
-85 1066 -327 1504 -719 118 -105 126 -136 55 -212 l-47 -51 -1 -106 c0 -101
-2 -112 -33 -174 -36 -73 -87 -124 -161 -160 -38 -19 -65 -23 -155 -25 l-108
-2 -49 -46 c-72 -67 -97 -64 -191 23 -292 270 -644 435 -1031 482 -141 18
-414 8 -551 -20 -342 -68 -633 -216 -900 -459 -99 -90 -123 -93 -195 -26 l-49
46 -108 2 c-90 2 -117 6 -155 25 -74 36 -125 87 -161 160 -31 62 -33 73 -33
174 l-1 106 -47 51 c-71 76 -63 107 55 212 487 436 1050 683 1698 743 25 2
153 2 285 1 181 -3 274 -9 379 -25z m-2466 -1067 l-3 -46 -81 -34 -80 -34 -43
-86 c-42 -86 -43 -102 -4 -103 22 0 70 -49 88 -92 10 -24 20 -44 21 -46 1 -2
21 17 44 42 48 52 128 108 142 100 5 -4 -9 -25 -32 -48 -36 -35 -80 -102 -80
-121 0 -3 10 -9 22 -14 17 -6 34 0 73 24 98 63 110 67 136 47 l22 -18 -44 -26
c-55 -33 -83 -63 -76 -83 5 -12 18 -14 65 -9 55 6 60 5 80 -21 66 -83 15 -191
-100 -210 -21 -4 -38 -12 -38 -18 0 -5 12 -30 26 -54 l25 -44 -35 -14 c-19 -8
-63 -15 -98 -15 -54 0 -76 7 -171 52 -101 47 -115 51 -181 50 -105 -1 -146
-18 -163 -67 -8 -22 -12 -56 -9 -76 5 -29 1 -40 -15 -55 -12 -10 -35 -48 -51
-84 -16 -36 -41 -78 -56 -94 l-27 -28 55 4 c68 5 154 44 208 92 40 36 41 37
71 22 59 -31 121 -14 195 54 l45 41 31 -16 c53 -27 127 -30 195 -7 54 19 57
19 35 2 -26 -20 -104 -46 -163 -55 l-38 -6 34 -42 c19 -23 42 -55 53 -71 l18
-29 -35 18 c-36 19 -123 45 -151 45 -25 0 -22 -26 11 -97 l29 -61 -36 15 c-39
16 -165 24 -178 10 -11 -10 90 -111 151 -150 27 -18 78 -42 113 -53 62 -21 62
-21 35 -33 -16 -7 -39 -21 -52 -32 -35 -28 -16 -42 70 -48 l72 -6 -71 -34
c-39 -19 -69 -38 -66 -43 8 -13 102 -9 179 7 38 8 74 15 79 15 9 0 0 -78 -15
-127 l-10 -32 -61 39 c-60 40 -96 56 -104 47 -2 -2 6 -26 18 -53 19 -41 23
-66 23 -151 l-1 -102 36 -16 c19 -8 61 -17 92 -19 70 -5 74 -7 82 -52 14 -74
70 -223 128 -342 33 -68 58 -125 56 -126 -1 -2 -16 -8 -32 -13 l-30 -9 39 -24
39 -24 -40 -12 c-21 -7 -66 -21 -99 -30 l-59 -17 29 -23 c25 -20 28 -26 15
-34 -25 -16 -163 -60 -189 -60 l-24 0 22 -24 22 -23 -23 -7 c-13 -3 -42 -6
-64 -6 -40 0 -42 -2 -48 -35 -7 -33 -9 -35 -47 -35 -22 0 -49 5 -60 10 -16 9
-19 7 -19 -15 0 -23 -3 -25 -27 -19 -16 4 -39 13 -51 21 -13 8 -25 13 -27 11
-2 -2 0 -29 4 -61 l8 -58 -28 27 c-16 15 -41 45 -55 66 -15 21 -30 38 -34 38
-11 0 -1 -71 21 -150 17 -64 17 -64 -2 -40 -29 39 -60 127 -66 195 l-6 62 52
-5 c28 -2 70 0 94 6 23 6 61 14 84 17 24 4 53 17 70 32 22 21 39 26 83 28 67
3 125 30 168 79 17 19 42 38 55 41 34 9 94 61 113 98 40 76 -30 331 -119 442
-24 29 -24 29 -155 33 -75 3 -160 -1 -199 -7 -131 -23 -310 -92 -444 -172 -29
-17 -46 -20 -80 -15 -40 6 -47 11 -71 54 -15 26 -50 74 -77 107 -38 45 -47 63
-38 70 7 6 21 27 32 49 26 51 78 92 137 107 l48 13 0 45 c0 25 6 72 14 104 14
61 10 69 -20 36 -28 -31 -62 -45 -123 -52 -84 -10 -203 -54 -267 -99 -54 -37
-59 -39 -71 -22 -7 10 -13 39 -13 66 0 93 164 374 404 692 l120 159 0 101 c1
97 3 106 39 178 27 56 54 91 98 131 l60 55 -2 68 c-2 64 2 76 43 159 25 50 57
122 72 160 24 63 33 74 74 97 26 15 70 43 97 62 28 19 54 35 58 35 4 1 7 -20
5 -46z m2167 -54 c288 -25 551 -115 781 -268 803 -536 982 -1637 389 -2396
-73 -93 -222 -239 -315 -309 -200 -149 -444 -254 -703 -303 -128 -24 -436 -24
-564 0 -338 64 -624 211 -867 446 -410 398 -585 973 -464 1531 152 707 750
1236 1468 1299 136 12 143 12 275 0z m2094 -369 c32 -59 61 -80 111 -80 26 0
33 -7 60 -60 17 -33 46 -77 64 -98 18 -20 47 -65 65 -99 17 -34 46 -77 64 -95
30 -31 34 -40 45 -137 13 -114 17 -124 118 -268 164 -236 354 -579 354 -639 0
-37 0 -37 -21 -18 -16 14 -24 16 -38 7 -15 -9 -26 -7 -57 14 -52 36 -126 63
-172 63 -28 0 -55 -12 -107 -47 l-70 -47 42 -7 c84 -15 153 -74 173 -150 20
-72 12 -87 -89 -184 -88 -85 -96 -90 -135 -89 -51 1 -99 25 -205 104 -93 69
-126 83 -229 99 -151 23 -300 5 -417 -53 -38 -19 -71 -33 -73 -32 -1 2 2 15 7
29 20 53 159 95 341 104 156 8 126 21 -65 30 -111 5 -133 8 -152 25 l-22 20
-31 -22 -32 -23 4 24 c2 18 17 31 58 51 55 27 64 39 84 120 6 26 2 30 -54 58
-53 27 -60 34 -60 60 0 17 2 30 5 30 2 0 44 -18 91 -40 48 -22 88 -39 89 -38
1 2 7 17 14 35 13 31 61 63 95 63 9 0 16 4 16 8 0 5 -70 21 -155 37 -132 24
-155 31 -155 46 0 15 6 18 28 14 181 -28 430 3 511 64 23 17 21 18 -85 14
l-109 -4 55 31 c61 34 148 105 140 114 -3 3 -30 -1 -60 -9 -60 -16 -200 -31
-200 -22 0 3 26 21 58 41 63 39 142 103 142 116 0 5 -16 2 -35 -6 -46 -19
-233 -64 -265 -64 -20 0 -16 5 25 26 72 37 115 64 115 74 0 4 -37 6 -82 2
l-82 -5 21 33 21 34 -68 33 c-78 38 -158 110 -189 171 -12 23 -21 44 -21 47 0
3 17 5 39 5 l38 0 -5 93 c-5 111 6 153 55 208 l35 39 -33 14 c-19 7 -47 19
-64 25 -25 9 -12 10 73 7 116 -5 119 0 32 57 l-45 29 69 -6 c38 -4 84 -13 102
-21 44 -18 44 -6 -1 57 l-36 49 33 -17 c18 -9 54 -32 81 -50 26 -19 56 -34 67
-34 19 0 20 4 14 38 -4 20 -15 59 -25 86 l-18 49 39 -38 c21 -21 52 -63 69
-95z m-567 -354 l32 -39 -34 7 c-64 12 -88 58 -74 139 l7 42 19 -55 c10 -30
33 -72 50 -94z m-4028 -194 c12 -37 66 -112 81 -112 11 0 15 12 15 53 0 55 12
77 42 77 15 0 18 -8 18 -47 0 -89 -40 -126 -101 -95 -50 25 -107 142 -69 142
5 0 11 -8 14 -18z m476 -1308 c11 -13 9 -23 -10 -62 -19 -37 -25 -69 -30 -152
-5 -94 -8 -109 -35 -148 -29 -44 -78 -78 -95 -67 -15 10 -12 43 8 72 13 20 18
57 23 143 5 119 17 159 62 208 24 26 59 29 77 6z m3828 -28 c61 -31 66 -46 73
-200 7 -151 24 -213 71 -263 26 -28 19 -29 -30 -4 -43 22 -112 93 -137 142
-13 25 -16 48 -12 92 l5 60 -49 49 c-39 39 -49 56 -49 83 0 22 6 38 18 44 25
15 79 13 110 -3z m-4424 -87 c14 -28 26 -52 26 -54 0 -13 -114 37 -124 54 -5
8 49 50 65 51 3 0 18 -23 33 -51z m5023 14 c24 -10 43 -21 43 -24 0 -9 -93
-48 -132 -56 -32 -6 -32 -5 -17 13 9 10 24 34 33 52 19 37 18 37 73 15z m-894
-267 c28 -42 103 -92 242 -161 147 -73 274 -113 385 -122 84 -6 100 -17 100
-69 0 -24 -5 -34 -21 -39 -35 -11 -94 -71 -139 -140 -36 -55 -47 -65 -71 -65
-18 0 -32 7 -39 19 -17 33 -11 117 15 198 13 42 22 79 19 82 -2 2 -29 -3 -59
-13 -85 -27 -148 -31 -164 -12 -11 13 -10 22 8 58 11 23 19 43 18 44 -1 2 -20
-1 -42 -6 -22 -5 -64 -10 -93 -10 -62 0 -73 14 -48 66 9 19 16 37 16 39 0 2
-20 -3 -44 -11 -58 -20 -120 -15 -124 9 -2 10 8 37 23 59 23 34 24 40 9 34
-11 -4 -40 -10 -66 -13 -37 -4 -49 -2 -53 9 -4 9 18 58 47 110 l53 95 6 -67
c3 -39 13 -79 22 -94z m-3963 -9 c0 -7 20 -53 45 -102 24 -48 42 -92 39 -97
-3 -4 -25 -8 -50 -8 -39 0 -46 3 -54 26 -18 46 -9 194 11 194 5 0 9 -6 9 -13z
m4699 -112 c1 -93 -4 -103 -56 -111 -24 -3 -46 -4 -48 -2 -3 2 15 44 40 92 25
48 45 95 46 104 2 44 18 -28 18 -83z m-3606 -233 c248 -238 572 -400 925 -464
154 -27 439 -30 587 -5 193 33 381 95 552 183 162 83 264 156 404 291 98 93
116 95 195 21 l56 -52 101 2 c95 3 106 1 162 -26 76 -37 130 -91 167 -167 27
-56 29 -67 26 -161 l-2 -101 47 -53 c78 -87 67 -117 -100 -265 -417 -372 -945
-610 -1493 -676 -156 -18 -163 -20 -170 -54 -17 -79 -79 -145 -162 -170 -63
-19 -63 -19 -126 0 -83 25 -145 91 -162 170 -7 34 -8 35 -201 60 -570 73
-1131 342 -1526 731 -73 71 -83 85 -83 116 0 28 10 47 46 87 l46 52 2 112 c1
101 4 117 28 162 35 67 101 128 171 160 52 24 67 26 156 23 l99 -3 55 53 c80
75 97 73 200 -26z"/>
<path d="M2893 6009 c-98 -31 -185 -105 -233 -199 -34 -65 -39 -203 -11 -283
38 -108 103 -177 216 -229 42 -19 66 -23 150 -22 68 0 114 6 145 18 111 41
204 137 235 241 22 72 19 193 -6 259 -68 182 -293 280 -496 215z m202 -198
c117 -54 141 -194 50 -286 -90 -89 -231 -60 -286 60 -24 51 -24 96 0 143 46
90 145 125 236 83z"/>
<path d="M3731 5977 c-46 -121 -220 -651 -216 -656 7 -6 188 -72 191 -68 1 1
28 79 59 172 32 94 61 174 65 178 4 4 42 -95 86 -220 l79 -228 90 -32 c50 -17
93 -32 96 -32 10 -1 231 659 226 672 -4 11 -158 67 -183 67 -5 0 -36 -81 -69
-180 -33 -99 -62 -174 -66 -167 -4 6 -42 111 -84 233 l-76 220 -95 31 -95 32
-8 -22z"/>
<path d="M2255 5834 c-16 -8 -56 -25 -87 -39 l-57 -24 139 -320 c76 -176 141
-324 144 -330 4 -5 45 8 100 32 l95 41 -13 31 c-141 335 -271 625 -280 624 -6
0 -24 -7 -41 -15z"/>
<path d="M4680 5514 c-72 -31 -150 -138 -150 -204 0 -37 31 -97 83 -164 58
-74 65 -93 40 -118 -41 -40 -118 13 -150 103 -10 27 -21 49 -26 49 -12 0 -167
-80 -167 -86 0 -24 72 -133 116 -174 111 -105 244 -134 340 -74 108 67 153
189 104 285 -13 24 -37 62 -55 84 -64 79 -69 115 -17 115 39 0 74 -29 97 -79
10 -23 21 -41 24 -41 3 0 40 20 82 43 l77 42 -20 40 c-28 54 -128 151 -180
175 -52 24 -148 26 -198 4z"/>
<path d="M1566 5408 c-42 -34 -76 -64 -76 -67 0 -8 440 -545 449 -549 8 -3
314 246 319 259 4 10 -19 42 -76 109 l-29 35 -84 -68 c-81 -66 -83 -68 -99
-48 -57 76 -316 390 -321 391 -4 0 -41 -28 -83 -62z"/>
<path d="M482 3703 c-63 -98 -182 -310 -182 -326 0 -13 56 -6 96 12 38 18 42
22 48 70 7 51 56 202 96 295 11 27 19 51 17 53 -3 2 -36 -45 -75 -104z"/>
<path d="M930 3688 c0 -56 19 -106 51 -132 25 -22 41 -26 89 -26 61 0 86 13
48 26 -42 13 -108 65 -148 116 l-40 50 0 -34z"/>
<path d="M1228 3253 l-3 -78 -28 47 c-26 45 -92 106 -102 96 -3 -3 5 -27 17
-54 18 -39 23 -68 23 -139 0 -49 -3 -102 -8 -117 -7 -27 -6 -28 31 -28 55 0
130 28 144 54 22 40 14 146 -17 214 -43 97 -54 98 -57 5z"/>
<path d="M965 3229 c-181 -62 -435 -220 -435 -270 0 -30 34 -23 82 18 76 64
189 133 326 199 72 35 132 66 132 69 0 11 -48 3 -105 -16z"/>
<path d="M978 3156 c-154 -54 -388 -209 -388 -257 0 -31 28 -22 88 30 74 63
161 119 289 184 96 48 121 67 91 67 -7 0 -43 -11 -80 -24z"/>
<path d="M954 3061 c-131 -51 -324 -184 -324 -222 0 -31 25 -22 87 32 58 51
171 123 283 179 98 49 68 56 -46 11z"/>
<path d="M3110 4874 c-333 -41 -634 -183 -873 -414 -134 -129 -218 -240 -296
-390 -113 -220 -159 -393 -168 -640 -7 -180 5 -285 48 -448 110 -418 393 -764
784 -957 198 -98 333 -136 554 -156 84 -7 151 -7 234 0 221 21 355 59 552 156
454 225 762 658 826 1162 16 129 6 369 -21 495 -124 586 -583 1044 -1170 1168
-78 17 -147 23 -270 25 -91 2 -181 1 -200 -1z m410 -579 l0 -75 -52 0 c-35 0
-64 -7 -85 -20 -66 -40 -63 -6 -63 -780 l0 -700 225 0 c303 0 305 1 315 176 6
85 11 108 33 147 25 42 101 117 118 117 4 0 28 -21 53 -47 44 -47 44 -48 27
-68 -41 -45 -56 -88 -56 -165 0 -83 13 -116 71 -180 l35 -38 -3 -89 -3 -88
-735 0 -735 0 -3 98 -3 97 53 0 c65 0 108 24 131 73 15 32 17 99 17 693 0 634
-1 659 -20 698 -25 52 -52 69 -120 76 l-55 5 -3 73 -3 72 431 0 430 0 0 -75z"/>
<path d="M5635 4199 c-22 -5 -93 -28 -159 -50 -110 -38 -125 -41 -206 -37 -73
2 -94 7 -119 26 -40 29 -47 28 -26 -5 69 -110 178 -149 295 -108 39 14 45 14
60 0 24 -22 26 -20 21 32 -2 36 1 50 15 60 10 7 21 13 25 13 13 0 18 -45 10
-81 -5 -21 -5 -43 0 -50 11 -18 51 20 86 79 41 69 62 41 27 -34 -22 -47 -56
-74 -100 -81 -52 -8 -106 -41 -102 -62 6 -29 99 -18 179 21 l69 34 18 -20 c10
-12 29 -38 41 -58 14 -24 32 -39 50 -43 16 -3 55 -22 86 -41 50 -30 105 -45
105 -29 0 3 -18 29 -40 58 -52 70 -77 128 -101 239 -26 121 -44 141 -131 145
-35 1 -81 -2 -103 -8z"/>
<path d="M6043 3679 c-6 -6 -30 -10 -52 -7 -23 2 -41 1 -41 -2 0 -10 63 -67
87 -79 12 -6 33 -11 47 -11 33 0 35 29 5 76 -22 37 -29 40 -46 23z"/>
<path d="M6059 3512 c20 -29 105 -92 123 -92 14 0 21 28 14 55 -5 21 -12 25
-42 25 -19 0 -53 9 -76 21 l-41 21 22 -30z"/>
<path d="M6168 3360 c32 -30 66 -39 77 -20 3 5 -12 14 -34 20 -22 6 -43 15
-46 20 -3 6 -12 10 -18 10 -7 0 3 -14 21 -30z"/>
<path d="M5470 3310 c0 -5 31 -25 69 -44 38 -20 100 -58 137 -87 84 -63 196
-160 191 -166 -2 -2 -34 17 -71 42 -128 85 -287 150 -398 162 -85 9 -75 -14
18 -39 112 -31 438 -197 420 -215 -3 -3 -53 11 -113 31 -236 77 -473 127 -473
99 0 -14 11 -18 100 -34 66 -11 356 -105 527 -170 l62 -24 27 21 c56 42 55 47
-26 130 -131 132 -300 253 -403 288 -55 19 -67 20 -67 6z"/>
<path d="M1715 1703 c-208 -232 -193 -210 -163 -239 l24 -25 172 192 173 192
-22 24 c-13 12 -25 23 -29 23 -3 0 -73 -75 -155 -167z"/>
<path d="M4591 1800 c-20 -18 -22 -22 -10 -38 79 -101 313 -372 321 -372 6 0
38 23 72 52 33 29 63 53 65 55 7 5 -32 43 -44 43 -7 0 -20 -9 -31 -21 -45 -49
-43 -50 -195 131 -78 93 -145 170 -148 170 -3 -1 -17 -10 -30 -20z"/>
<path d="M1958 1762 c-25 -29 -268 -379 -273 -395 -7 -16 43 -54 54 -40 21 24
85 118 135 197 31 50 56 86 56 80 0 -5 -25 -84 -56 -177 l-56 -167 24 -20 c12
-11 25 -19 28 -20 3 0 72 96 153 212 l148 212 -23 18 c-13 10 -27 18 -33 18
-10 0 -140 -190 -170 -248 -34 -68 -24 -21 28 141 50 152 53 167 38 180 -29
25 -38 27 -53 9z"/>
<path d="M4431 1683 l-23 -19 85 -224 c47 -124 89 -233 92 -242 9 -22 23 -22
49 -3 18 14 18 16 2 59 -10 25 -15 49 -13 53 3 5 22 17 41 27 l37 19 32 -31
c38 -37 44 -38 75 -14 l22 17 -188 188 -188 188 -23 -18z m196 -251 l27 -34
-25 -19 c-13 -10 -27 -19 -30 -19 -4 0 -16 21 -27 48 -11 26 -32 74 -47 107
l-25 60 50 -55 c28 -30 63 -70 77 -88z"/>
<path d="M2171 1604 c-6 -15 -10 -28 -9 -29 2 -1 18 -10 35 -19 l33 -16 -29
-53 c-66 -120 -181 -339 -181 -347 0 -8 59 -35 64 -29 1 2 47 87 100 189 54
102 101 189 106 193 4 5 21 2 38 -7 29 -15 31 -15 46 9 9 13 16 26 16 29 0 5
-190 106 -200 106 -4 0 -12 -12 -19 -26z"/>
<path d="M4258 1579 c-10 -5 -18 -14 -18 -18 0 -13 75 -169 121 -251 23 -41
40 -73 37 -70 -3 3 -54 59 -113 125 -59 66 -116 129 -126 139 -16 17 -21 18
-49 6 -17 -7 -29 -16 -28 -20 2 -5 50 -110 108 -234 101 -218 106 -227 130
-221 14 4 29 11 35 16 6 6 -19 66 -67 162 -42 83 -75 153 -74 154 1 1 56 -58
121 -132 122 -138 132 -145 171 -113 16 12 -195 467 -216 467 -8 0 -23 -4 -32
-10z"/>
<path d="M2326 1290 c-48 -121 -90 -228 -93 -238 -4 -16 10 -25 77 -52 83 -33
92 -33 104 6 6 19 0 24 -44 40 -27 10 -50 22 -50 26 0 8 51 140 56 147 2 2 24
-4 50 -14 39 -15 48 -15 55 -4 18 29 9 49 -31 65 -22 9 -40 20 -40 25 0 5 12
38 26 73 l26 65 50 -20 c53 -21 61 -19 72 17 6 19 -2 25 -71 53 -43 17 -83 31
-89 31 -5 0 -50 -99 -98 -220z"/>
<path d="M3859 1412 c-27 -24 -33 -37 -37 -85 -8 -105 75 -331 140 -380 34
-25 103 -25 137 1 43 32 57 83 43 162 -19 111 -70 238 -115 287 -36 39 -44 43
-88 43 -39 0 -55 -5 -80 -28z m127 -79 c35 -52 79 -201 79 -268 0 -55 -2 -60
-23 -63 -33 -5 -51 14 -82 83 -50 109 -77 233 -60 265 17 31 59 23 86 -17z"/>
<path d="M2620 1426 c0 -2 -29 -113 -65 -247 -35 -133 -63 -245 -61 -247 3 -2
19 -5 37 -5 l32 -2 23 90 c14 50 27 97 31 105 3 8 12 -38 18 -103 12 -124 18
-137 64 -137 22 0 23 3 18 38 -4 20 -9 78 -13 127 l-6 90 31 17 c66 36 96 181
48 226 -30 28 -157 67 -157 48z m100 -97 c15 -26 -7 -106 -33 -124 -52 -36
-56 -13 -21 104 15 53 33 59 54 20z"/>
<path d="M3667 1373 c-11 -3 -16 -11 -13 -21 3 -9 21 -100 41 -202 63 -326 51
-290 88 -283 18 3 33 7 35 8 2 2 -18 116 -45 254 -52 271 -47 259 -106 244z"/>
<path d="M2885 1359 c-8 -26 -73 -494 -68 -501 2 -5 19 -8 37 -8 l33 0 13 102
c7 55 16 135 19 177 l7 76 9 -50 c4 -27 17 -110 29 -184 21 -134 22 -135 51
-143 16 -4 31 -5 34 -2 6 6 70 447 71 487 0 24 -3 27 -34 27 l-34 0 -11 -82
c-7 -46 -15 -126 -19 -178 l-8 -95 -28 180 c-16 99 -31 183 -35 187 -14 15
-61 20 -66 7z"/>
<path d="M3470 1346 l-85 -11 0 -30 c0 -29 2 -30 40 -27 l41 3 23 -193 c34
-279 29 -258 63 -258 16 0 31 6 34 14 3 8 -6 107 -20 219 -14 112 -26 209 -26
215 0 5 16 13 35 16 31 6 35 11 35 36 0 35 -1 35 -140 16z"/>
<path d="M3245 1328 c-14 -37 -102 -504 -97 -510 10 -10 63 3 67 16 2 6 6 28
10 49 6 37 6 37 55 37 47 0 49 -1 55 -32 13 -66 15 -68 51 -68 19 0 34 3 34 8
0 4 -27 120 -59 257 -57 246 -58 250 -85 253 -15 2 -28 -2 -31 -10z m64 -330
c1 -14 -7 -18 -34 -18 -35 0 -36 1 -30 33 6 36 24 164 26 187 1 16 37 -174 38
-202z"/>
<path d="M3210 728 c-76 -40 -101 -123 -59 -198 27 -48 66 -70 124 -70 58 0
97 22 124 70 42 75 17 158 -59 198 -24 12 -54 22 -65 22 -11 0 -41 -10 -65
-22z m118 -32 c73 -38 74 -147 2 -189 -75 -45 -165 10 -163 98 2 81 87 129
161 91z"/>
<path d="M3227 683 c-4 -3 -7 -42 -7 -85 0 -71 2 -78 19 -78 16 0 20 8 23 38
l3 37 24 -37 c35 -58 69 -47 37 11 -12 21 -12 28 1 48 14 21 14 26 -1 48 -13
19 -25 25 -55 25 -21 0 -41 -3 -44 -7z m68 -43 c0 -8 -8 -16 -17 -18 -13 -2
-18 3 -18 18 0 15 5 20 18 18 9 -2 17 -10 17 -18z"/>
</g>
</svg>
