<?xml version="1.0" encoding="utf-8"?>
<!-- Generator: Adobe Illustrator 25.0.1, SVG Export Plug-In . SVG Version: 6.00 Build 0)  -->
<svg version="1.1" id="Layer_1" xmlns="http://www.w3.org/2000/svg" xmlns:xlink="http://www.w3.org/1999/xlink" x="0px" y="0px"
	 viewBox="0 0 22 22" style="enable-background:new 0 0 22 22;" xml:space="preserve">
<style type="text/css">
	.st0{fill:#499EB8;}
</style>
<path class="st0" d="M4,0v2H0v17c0,1.7,1.3,3,3,3h15.2c2.1,0,3.8-1.7,3.8-3.8V0H4z M2,19V4h2v15c0,0.6-0.4,1-1,1S2,19.6,2,19z
	 M20,18.2c0,1-0.8,1.8-1.8,1.8l0,0H5.8C5.9,19.7,6,19.3,6,19V2h14V18.2z"/>
<rect x="10" y="4" class="st0" width="8" height="2"/>
<rect x="8" y="8" class="st0" width="10" height="2"/>
<rect x="8" y="12" class="st0" width="10" height="2"/>
<rect x="8" y="16" class="st0" width="10" height="2"/>
</svg>
