<?xml version="1.0" encoding="utf-8"?>
<!-- Generator: Adobe Illustrator 25.0.1, SVG Export Plug-In . SVG Version: 6.00 Build 0)  -->
<svg version="1.1" id="Phone" xmlns="http://www.w3.org/2000/svg" xmlns:xlink="http://www.w3.org/1999/xlink" x="0px" y="0px"
	 viewBox="0 0 108 108.3" style="enable-background:new 0 0 108 108.3;" xml:space="preserve">
<style type="text/css">
	.st0{fill:#499EB8;}
</style>
<path class="st0" d="M51.8,66.6C42.6,59,36.4,49.5,33.1,44.2l-2.4-4.6c0.8-0.9,7.3-7.9,10.1-11.6c3.5-4.7-1.6-9-1.6-9
	S24.8,4.6,21.5,1.7c-3.3-2.9-7.1-1.3-7.1-1.3C7.6,4.9,0.4,8.8,0,27.4c0,17.4,13.2,35.4,27.6,49.4c14.3,15.7,34,31.5,53.1,31.5
	c18.6-0.4,22.5-7.6,27-14.5c0,0,1.6-3.8-1.3-7.1C103.5,83.5,89.1,69,89.1,69s-4.3-5.1-9-1.6c-3.5,2.6-9.9,8.5-11.4,9.9
	C68.7,77.4,58.1,71.7,51.8,66.6z"/>
</svg>
