<svg id="Capa_1" data-name="Capa 1" xmlns="http://www.w3.org/2000/svg" viewBox="0 0 611.98 612"><defs><style>.cls-1{fill:#499eb8;}</style></defs><g id="_4" data-name="4"><path class="cls-1" d="M606.2,578.7l-158-155.5c41.4-45,66.8-104.4,66.8-169.8C515,113.4,399.7,0,257.5,0S0,113.4,0,253.4,115.3,506.8,257.5,506.8a259.41,259.41,0,0,0,162.1-56.6L578.2,606.3a20,20,0,0,0,28,0A19.38,19.38,0,0,0,606.2,578.7ZM257.5,467.8c-120.3,0-217.9-96-217.9-214.4S137.2,39,257.5,39s217.9,96,217.9,214.4S377.8,467.8,257.5,467.8Z"/></g></svg>